<svg width="258" height="67" viewBox="0 0 258 67" fill="none" xmlns="http://www.w3.org/2000/svg">
<g clip-path="url(#clip0_247_3)">
<path d="M45.5374 14.0908C45.6206 14.9304 45.4402 15.6382 44.7464 16.0267C44.2329 16.3182 43.7264 16.0753 43.2545 15.7423C42.9145 15.5063 42.5745 15.2704 42.2137 15.0623C38.9178 13.1541 35.608 11.0863 32.319 9.17816C30.7369 8.26224 30.8341 8.30387 32.2149 7.25611C34.1022 5.81285 35.5802 6.06264 37.6757 7.2353C39.7296 8.38714 41.2631 9.25449 43.1088 10.3647C44.6492 11.1418 45.4541 12.0231 45.5374 14.0908Z" fill="#44FAE8"/>
<path d="M60.0464 33.2558C59.3595 33.7484 58.6517 33.9427 57.9717 33.5333C57.4652 33.228 57.4235 32.666 57.4721 32.097C57.5068 31.6807 57.5415 31.2713 57.5415 30.8549C57.5554 27.0456 57.7011 23.1459 57.7219 19.3504C57.7288 17.5255 57.7427 17.6296 59.3386 18.3027C61.5313 19.2255 62.0517 20.6272 62.0725 23.028C62.1003 25.3802 62.1142 27.1427 62.0586 29.2937C62.1627 31.0215 61.8019 32.1525 60.0464 33.2558Z" fill="#44FAE8"/>
<path d="M50.6513 55.3836C49.888 55.0297 49.3676 54.5162 49.3815 53.7252C49.3953 53.1354 49.8602 52.8162 50.3737 52.5803C50.7484 52.4068 51.1231 52.2264 51.4839 52.0252C54.7937 50.1379 58.2492 48.3268 61.5521 46.4534C63.1411 45.5513 63.0578 45.6138 63.266 47.3276C63.5574 49.6868 62.5999 50.8317 60.5321 52.053C58.506 53.2464 56.9795 54.1346 55.0921 55.1615C53.6419 56.1052 52.4762 56.355 50.6513 55.3836Z" fill="#44FAE8"/>
<path d="M26.7818 58.2493C26.7055 57.4097 26.8928 56.7019 27.5867 56.3203C28.1071 56.0358 28.6067 56.2787 29.0786 56.6117C29.4186 56.8546 29.7586 57.0836 30.1124 57.2987C33.3945 59.2277 36.6904 61.3232 39.9586 63.2591C41.5337 64.1889 41.4365 64.1473 40.0488 65.1812C38.1476 66.6105 36.6765 66.3538 34.588 65.1603C32.541 63.9946 31.0145 63.1203 29.1826 61.9893C27.6492 61.2052 26.8512 60.3171 26.7818 58.2493Z" fill="#44FAE8"/>
<path d="M12.4116 38.9733C13.0985 38.4876 13.8063 38.3003 14.4863 38.7097C14.9928 39.015 15.0275 39.577 14.972 40.146C14.9304 40.5623 14.8957 40.9717 14.8957 41.388C14.854 45.1974 14.6806 49.097 14.632 52.8926C14.6112 54.7175 14.5973 54.6134 13.0083 53.9334C10.8226 52.9966 10.3161 51.5881 10.3091 49.1872C10.3022 46.835 10.3022 45.0725 10.3646 42.9215C10.2814 41.2007 10.6561 40.0627 12.4116 38.9733Z" fill="#44FAE8"/>
<path d="M21.9802 16.9219C22.7434 17.2757 23.2569 17.7961 23.2361 18.5941C23.2222 19.1839 22.7504 19.4961 22.23 19.7321C21.8553 19.9055 21.4806 20.079 21.1198 20.2802C17.7961 22.1398 14.3267 23.93 11.01 25.7757C9.41403 26.6639 9.50423 26.6015 9.30301 24.8876C9.03239 22.5284 9.99689 21.3835 12.0716 20.1831C14.1116 19.0035 15.6381 18.1292 17.5394 17.1161C18.9896 16.1794 20.1622 15.9365 21.9802 16.9219Z" fill="#44FAE8"/>
<path d="M52.2056 9.23367C49.43 9.23367 47.1749 11.4888 47.1749 14.2643C47.1749 16.1516 48.2227 17.8031 49.7631 18.6635C49.7353 23.1043 49.7215 27.5382 49.7423 31.979C49.7492 33.1933 49.2496 33.7484 48.2713 34.5256C47.7023 34.9835 47.2443 35.386 46.8835 35.7746C46.5574 36.1215 46.0647 36.2672 45.5998 36.1562L42.3594 35.4068C42.7688 36.8223 42.4149 38.3697 41.4366 39.4729L45.5998 40.4374C45.7525 40.4721 45.8982 40.4721 46.0439 40.4513C46.2382 40.5276 46.5088 40.4235 46.8419 40.2362C47.8619 39.6464 51.2064 37.7799 51.8725 37.3705C53.3505 36.4684 54.0096 35.6427 53.968 33.8803C53.8639 28.919 53.8431 23.9439 53.9888 18.9827C55.8901 18.261 57.2362 16.4223 57.2362 14.2782C57.2431 11.4888 54.9811 9.23367 52.2056 9.23367ZM54.0027 17.0329C53.4892 17.3659 52.8717 17.5672 52.2056 17.5672C51.2411 17.5672 50.3807 17.1578 49.777 16.4986C49.2358 15.9088 48.9096 15.1247 48.9096 14.2712C48.9096 12.4463 50.3876 10.9753 52.2056 10.9753C54.0305 10.9753 55.5015 12.4533 55.5015 14.2712C55.5084 15.4231 54.9117 16.4431 54.0027 17.0329Z" fill="#44FAE8"/>
<path d="M39.91 38.1754L39.348 38.7721L39.2161 38.9178L38.5153 39.6603C37.9533 40.2639 37.1067 40.5207 36.3088 40.3333L35.49 40.146L35.3512 40.1113L34.2965 39.8684C33.4847 39.6811 32.8394 39.0705 32.6035 38.2725L32.3814 37.5231L32.3398 37.3705L32.0276 36.3088C31.8055 35.5248 31.9998 34.6782 32.5549 34.0815L33.1169 33.4847L33.2488 33.346L33.9565 32.5896C34.3937 32.1178 35.0112 31.8611 35.6427 31.8611C35.8161 31.8611 35.9896 31.8749 36.1561 31.9166L36.968 32.1039L37.1206 32.1386L38.1614 32.3815C38.9733 32.5688 39.6255 33.1794 39.8545 33.9774L40.0765 34.7407L40.1182 34.8933L40.4304 35.955C40.6663 36.7321 40.4651 37.5856 39.91 38.1754Z" fill="#44FAE8"/>
<path d="M63.2382 34.3729C60.539 34.3729 58.3256 36.5101 58.2076 39.1884C54.3358 41.3811 50.4709 43.5807 46.6198 45.815C45.5721 46.4256 44.8435 46.266 43.6847 45.8011C42.9561 45.5097 42.3455 45.3085 41.8043 45.1905C41.3117 45.0864 40.9231 44.7256 40.7843 44.2468L39.8684 41.1313C39.0565 41.9501 37.9533 42.3942 36.8223 42.3942C36.5031 42.3942 36.17 42.3595 35.8578 42.2831L37.0651 46.4048C37.1414 46.6615 37.308 46.8697 37.5161 47.0015C37.6133 47.1403 37.7937 47.2652 38.0296 47.404C39.0496 48.0007 42.3317 49.9644 43.0186 50.3391C44.5382 51.1717 45.579 51.3313 47.0917 50.4223C51.2827 47.8897 55.5292 45.4334 59.8452 43.1158C60.7403 43.9346 61.9337 44.4342 63.2382 44.4342C66.0138 44.4342 68.2689 42.1791 68.2689 39.4035C68.2689 36.628 66.0138 34.3729 63.2382 34.3729ZM63.2382 42.7064C62.5999 42.7064 62.0031 42.526 61.4966 42.2068C60.5599 41.624 59.9354 40.5901 59.9354 39.4035C59.9354 38.9178 60.0395 38.4529 60.2337 38.0366C60.7542 36.8986 61.906 36.1007 63.2382 36.1007C65.0631 36.1007 66.5342 37.5786 66.5342 39.3966C66.5411 41.2284 65.0631 42.7064 63.2382 42.7064Z" fill="#44FAE8"/>
<path d="M47.2027 55.9872C46.2382 55.9872 45.3362 56.2579 44.5659 56.7366C40.7496 54.4746 36.9194 52.2264 33.0753 50.006C32.0275 49.4023 31.8055 48.6876 31.6251 47.4456C31.5141 46.6823 31.3822 46.0578 31.2226 45.5374C31.0769 45.0656 31.188 44.5521 31.521 44.1913L33.7692 41.7974C32.3329 41.4366 31.1741 40.3611 30.7231 38.9525L27.8088 42.068C27.6422 42.2415 27.5451 42.4566 27.5312 42.6786V42.6856C27.4549 42.8382 27.4341 43.0603 27.4341 43.3309C27.4271 44.5105 27.3508 48.3407 27.3716 49.1248C27.4133 50.8595 27.7879 51.8448 29.3284 52.6983C33.6859 55.1268 38.0088 57.6248 42.2415 60.2685C42.2068 60.5183 42.1859 60.7681 42.1859 61.0248C42.1859 63.8003 44.448 66.0554 47.2166 66.0554C49.9921 66.0554 52.2472 63.8003 52.2472 61.0248C52.2472 58.2493 49.9782 55.9872 47.2027 55.9872ZM47.2027 64.3138C45.4611 64.3138 44.0317 62.9607 43.9137 61.2469C43.9068 61.1705 43.9068 61.0942 43.9068 61.0179C43.9068 59.4705 44.9684 58.173 46.4047 57.8191C46.6615 57.7566 46.9251 57.7219 47.2027 57.7219C49.0276 57.7219 50.4986 59.1999 50.4986 61.0179C50.5056 62.8428 49.0276 64.3138 47.2027 64.3138Z" fill="#44FAE8"/>
<path d="M31.0353 32.777L26.8651 31.8056C26.6084 31.75 26.3516 31.7847 26.1365 31.8958C26.0047 31.9305 25.8451 32.0068 25.6716 32.1039C24.6447 32.6868 21.2863 34.5256 20.6132 34.935C19.1353 35.8301 18.4692 36.6488 18.49 38.4113C18.5594 43.4766 18.5385 48.5489 18.3443 53.6142C16.6234 54.4121 15.43 56.1607 15.43 58.1799C15.43 60.9554 17.6851 63.2105 20.4606 63.2105C23.2361 63.2105 25.4912 60.9554 25.4912 58.1799C25.4912 56.1607 24.2908 54.4121 22.57 53.6142C22.6324 49.1872 22.681 44.7603 22.6879 40.3333C22.6949 39.119 23.2014 38.5709 24.1798 37.8007C24.7835 37.3288 25.2692 36.9056 25.6369 36.4962C25.963 36.1492 26.4557 36.0035 26.9206 36.1076L30.0778 36.8362C29.6961 35.4207 30.05 33.8733 31.0353 32.777ZM23.7704 58.173C23.7704 59.9979 22.2924 61.4689 20.4745 61.4689C18.6496 61.4689 17.1785 59.9909 17.1785 58.173C17.1785 57.146 17.6504 56.2232 18.3859 55.6195C18.9549 55.1546 19.6834 54.8701 20.4745 54.8701C21.2655 54.8701 21.9941 55.1477 22.563 55.6126C23.2986 56.2232 23.7704 57.146 23.7704 58.173Z" fill="#44FAE8"/>
<path d="M35.3929 25.8451C35.3027 25.5329 35.0737 25.29 34.8031 25.1651H34.7961C34.7198 25.1096 34.6365 25.0541 34.5394 24.9986C33.5263 24.3949 30.2582 22.4035 29.5712 22.0219C28.0516 21.1823 27.0177 21.0088 25.4981 21.9108C21.0504 24.5476 16.5402 27.108 11.9536 29.5019C11.1626 28.9815 10.2189 28.6831 9.20586 28.6831C6.43035 28.6831 4.17524 30.9382 4.17524 33.7137C4.17524 36.4892 6.43035 38.7443 9.20586 38.7443C11.9814 38.7443 14.2365 36.4892 14.2365 33.7137C14.2365 33.5056 14.2226 33.3043 14.2018 33.1031C18.1222 30.9243 22.0288 28.7386 25.9284 26.5182C26.9831 25.9145 27.7116 26.0811 28.8635 26.5529C29.5851 26.8443 30.1888 27.0455 30.7231 27.1704C31.2018 27.2815 31.5696 27.6423 31.7084 28.1072L32.5827 31.1117C33.6304 30.0639 35.1431 29.6268 36.5933 29.9529L35.3929 25.8451ZM9.2128 37.0166C7.3879 37.0166 5.91688 35.5386 5.91688 33.7207C5.91688 31.9027 7.39484 30.4247 9.2128 30.4247C9.58056 30.4247 9.94138 30.4872 10.2744 30.5982C11.5789 31.0423 12.5157 32.2705 12.5157 33.7207C12.5157 33.8386 12.5087 33.9496 12.4949 34.0676C12.3214 35.726 10.9128 37.0166 9.2128 37.0166Z" fill="#44FAE8"/>
<path d="M45.0308 23.2292C44.9823 21.4945 44.5937 20.5162 43.0463 19.6696C38.5084 17.1925 33.9982 14.6251 29.599 11.9051C29.6059 11.8218 29.6059 11.7386 29.6059 11.6553C29.6059 8.8798 27.3439 6.62469 24.5753 6.62469C21.7998 6.62469 19.5447 8.8798 19.5447 11.6553C19.5447 14.4308 21.7998 16.6859 24.5753 16.6859C25.7202 16.6859 26.7749 16.3043 27.6145 15.659C31.5002 17.921 35.3929 20.1761 39.3063 22.3966C40.361 22.9933 40.59 23.708 40.7843 24.9431C40.9023 25.6925 41.0272 26.2962 41.1868 26.8166C41.3325 27.2815 41.2145 27.7811 40.8745 28.1349L38.7027 30.4525C40.139 30.8133 41.2978 31.8958 41.7419 33.3043L44.6631 30.1888C44.8227 30.0154 44.9129 29.8211 44.9406 29.606V29.599C44.9892 29.4464 45.01 29.2521 45.01 29.0231C45.0031 27.8435 45.0517 24.0133 45.0308 23.2292ZM25.9075 14.6667C25.4981 14.8472 25.0471 14.9512 24.5683 14.9512C22.7434 14.9512 21.2724 13.4733 21.2724 11.6553C21.2724 9.83041 22.7504 8.35939 24.5683 8.35939C26.1712 8.35939 27.5104 9.50429 27.8018 11.0169C27.8435 11.2251 27.8643 11.4402 27.8643 11.6553C27.8643 12.9945 27.0594 14.1533 25.9075 14.6667Z" fill="#44FAE8"/>
<path d="M89.3429 20.8763C92.6334 20.8763 94.9975 22.282 96.4351 25.0933C97.1699 23.7515 98.1762 22.7133 99.4541 21.9785C100.732 21.2437 102.122 20.8763 103.623 20.8763C109.342 20.8763 112.217 24.1668 112.249 30.7479V44.1657H107.936V31.2751C107.936 29.0388 107.537 27.4175 106.738 26.4111C105.939 25.4048 104.709 24.9016 103.048 24.9016C101.099 24.9016 99.6458 25.4926 98.6874 26.6747C97.729 27.8567 97.2498 29.4859 97.2498 31.5626V44.1657H92.9369V31.9459C92.9369 29.2624 92.5536 27.4175 91.7869 26.4111C91.0201 25.4048 89.8062 24.9016 88.1449 24.9016C86.3559 24.9016 84.9263 25.5885 83.856 26.9622C82.7857 28.336 82.2507 30.077 82.2507 32.1855V44.1657H77.9378V21.4514H81.9632V24.9975H82.059C82.5382 23.8793 83.4886 22.9129 84.9103 22.0983C86.3319 21.2836 87.8095 20.8763 89.3429 20.8763ZM127.871 20.8763C130.746 20.8763 133.022 21.5311 134.7 22.8409C136.377 24.1507 137.263 25.9718 137.359 28.3038V40.4756C137.359 41.6257 137.423 42.8557 137.551 44.1655H133.717C133.621 43.1432 133.574 41.9931 133.574 40.7152H133.478C132.487 42.1848 131.345 43.2232 130.051 43.8301C128.758 44.437 127.248 44.7406 125.523 44.7406C123.191 44.7406 121.298 44.1176 119.844 42.8717C118.391 41.6257 117.664 39.9804 117.664 37.9359C117.664 35.3482 118.75 33.3913 120.923 32.0656C123.095 30.7399 126.162 30.0769 130.123 30.0769H133.334V29.2623C133.334 27.7288 132.831 26.5229 131.824 25.6443C130.818 24.7656 129.5 24.3264 127.871 24.3264C126.657 24.3264 125.595 24.5101 124.684 24.8775C123.774 25.2449 122.696 25.9238 121.45 26.9142L118.862 24.2307C121.322 22.0583 124.325 20.9403 127.871 20.8763ZM121.977 37.6006C121.977 40.0606 123.606 41.2904 126.865 41.2904C128.813 41.2904 130.371 40.7074 131.537 39.5413C132.703 38.3753 133.302 36.6901 133.334 34.4857V33.2398H130.89C128.079 33.2398 125.89 33.5992 124.325 34.318C122.759 35.0368 121.977 36.131 121.977 37.6006ZM154.083 20.8763C155.713 20.8763 157.23 21.2117 158.636 21.8826C160.042 22.5535 161.16 23.4959 161.99 24.7099H162.086V21.4513H166.399V44.1656C166.367 47.5201 165.217 50.2673 162.949 52.4079C160.681 54.5485 157.693 55.6347 153.988 55.6665C149.291 55.6665 145.586 54.3088 142.87 51.5933L145.793 47.9513C148.061 50.4113 150.777 51.6412 153.94 51.6412C156.655 51.6412 158.692 50.9464 160.05 49.5567C161.407 48.167 162.086 46.2741 162.086 43.8781V40.4278H161.942C161.176 41.7696 160.066 42.7759 158.612 43.4468C157.158 44.1177 155.649 44.4531 154.083 44.4531C150.761 44.4531 148.013 43.343 145.841 41.1227C143.669 38.9024 142.567 36.1629 142.535 32.9043C142.567 29.2624 143.661 26.355 145.817 24.1828C147.974 22.0105 150.729 20.9082 154.083 20.8763ZM147.135 32.8085C147.135 35.0767 147.798 36.8978 149.124 38.2715C150.449 39.6451 152.278 40.364 154.61 40.4279C156.911 40.4279 158.724 39.741 160.049 38.3673C161.375 36.9936 162.054 35.1406 162.086 32.8085C162.086 30.4445 161.407 28.5436 160.05 27.106C158.692 25.6684 156.863 24.9336 154.563 24.9016C152.294 24.9016 150.489 25.6524 149.148 27.1539C147.806 28.6554 147.135 30.5402 147.135 32.8085ZM183.698 20.9242C187.308 20.9242 190.216 22.1222 192.42 24.5183L189.161 27.4893C187.596 25.7962 185.711 24.9496 183.507 24.9496C181.398 24.9496 179.689 25.7003 178.379 27.2018C177.069 28.7033 176.414 30.636 176.414 33.0002C176.414 35.2365 177.101 37.0734 178.475 38.511C179.849 39.9487 181.606 40.6834 183.746 40.7154C186.014 40.7154 187.851 39.8688 189.257 38.1756L192.324 41.2425C190.279 43.5747 187.404 44.7407 183.698 44.7407C180.216 44.7407 177.381 43.6545 175.192 41.4821C173.004 39.3097 171.878 36.4505 171.814 32.9044C171.846 29.2943 172.972 26.403 175.192 24.2308C177.413 22.0585 180.248 20.9561 183.698 20.9242ZM207.227 20.8763C208.026 20.8763 208.665 20.9722 209.144 21.1638L208.952 25.8121C208.122 25.5885 207.403 25.4767 206.796 25.4767C202.547 25.4767 200.39 27.8407 200.327 32.5689V44.1657H196.014V21.4514H200.327V24.9496H200.423C200.998 23.7356 201.924 22.7532 203.202 22.0024C204.48 21.2517 205.822 20.8763 207.227 20.8763ZM223.856 20.8763C227.21 20.8763 230.053 22.0345 232.386 24.3506C234.718 26.6666 235.9 29.4862 235.932 32.8085C235.932 36.1629 234.766 38.9744 232.433 41.2425C230.101 43.5106 227.242 44.6767 223.856 44.7407C220.533 44.7407 217.706 43.5906 215.374 41.2904C213.041 38.9903 211.844 36.1629 211.78 32.8085C211.78 29.5181 212.938 26.7226 215.254 24.4224C217.57 22.1223 220.438 20.9403 223.856 20.8763ZM216.38 32.8085C216.38 35.1407 217.067 37.0334 218.441 38.4871C219.814 39.9408 221.619 40.6834 223.856 40.7154C226.124 40.7154 227.929 39.9886 229.271 38.535C230.612 37.0814 231.299 35.1727 231.331 32.8085C231.331 30.4764 230.66 28.5836 229.319 27.1299C227.977 25.6763 226.14 24.9336 223.808 24.9016C221.539 24.9016 219.734 25.6524 218.393 27.1539C217.051 28.6554 216.38 30.5402 216.38 32.8085ZM249.014 20.8763C250.739 20.8763 252.28 21.1959 253.638 21.8348C254.996 22.4737 256.042 23.4002 256.777 24.6142L253.423 27.154C252.145 25.6525 250.595 24.9017 248.774 24.9017C247.688 24.9017 246.786 25.1413 246.067 25.6205C245.348 26.0997 244.989 26.7068 244.989 27.4415C244.989 29.0388 246.474 30.1251 249.445 30.7001C252.352 31.2432 254.405 32.0419 255.603 33.0961C256.801 34.1504 257.4 35.652 257.4 37.6007C257.4 39.805 256.561 41.538 254.884 42.8C253.207 44.062 250.963 44.7088 248.151 44.7408C246.043 44.7408 244.31 44.4134 242.952 43.7584C241.594 43.1035 240.42 42.0892 239.43 40.7155L242.688 38.0319C244.414 39.821 246.251 40.7155 248.199 40.7155C249.477 40.7155 250.563 40.4599 251.458 39.9488C252.352 39.4376 252.8 38.7347 252.8 37.8402C252.8 36.2748 251.362 35.1885 248.487 34.5816C245.292 33.9427 243.144 33.0881 242.041 32.0179C240.939 30.9476 240.388 29.566 240.388 27.8728C240.388 25.7643 241.203 24.0791 242.832 22.8171C244.461 21.5552 246.522 20.9083 249.014 20.8763Z" fill="white"/>
</g>
<defs>
<clipPath id="clip0_247_3">
<rect width="257.4" height="66.1571" fill="white"/>
</clipPath>
</defs>
</svg>
